<?xml version="1.0" encoding="utf-8"?><svg id="Layer_1" data-name="Layer 1" xmlns="http://www.w3.org/2000/svg" viewBox="0 0 329.02 103.41"><defs><style>.cls-1{fill:#fff;}.cls-2{fill:#0e7a77;}.cls-3{fill:#0c9;}.cls-4{fill:#099d91;}</style></defs><title>Virtu Logo Horiz White Txt RGB</title><path class="cls-1" d="M555.59,360.81,540,397.21H529.85l-15.54-36.4h11.12l9.88,23.71,10.09-23.71Z" transform="translate(-514.31 -332.52)"/><path class="cls-1" d="M564.26,360.81h10.3v36.4h-10.3Z" transform="translate(-514.31 -332.52)"/><path class="cls-1" d="M604.34,387.54h-5.61v9.67h-10.3v-36.4h16.64a20.65,20.65,0,0,1,8.58,1.64,12.71,12.71,0,0,1,5.62,4.68,12.87,12.87,0,0,1,2,7.15,12.69,12.69,0,0,1-1.84,6.89,12.47,12.47,0,0,1-5.28,4.6L622,397.21H611Zm4.89-17.22a7.12,7.12,0,0,0-4.78-1.4h-5.72v10.66h5.72a7.17,7.17,0,0,0,4.78-1.38,4.88,4.88,0,0,0,1.61-3.92A5,5,0,0,0,609.23,370.32Z" transform="translate(-514.31 -332.52)"/><path class="cls-1" d="M640.68,369H629.5v-8.16h32.6V369H651v28.24H640.68Z" transform="translate(-514.31 -332.52)"/><path class="cls-1" d="M676.1,393.52q-4.5-4.42-4.5-12.54V360.81h10.3v19.86q0,8.74,6.92,8.74t6.86-8.74V360.81h10.14V381q0,8.11-4.5,12.54t-12.61,4.42Q680.61,397.94,676.1,393.52Z" transform="translate(-514.31 -332.52)"/><path class="cls-1" d="M528.55,416.86v7.45h10.72v2.63H528.55v8.64h-3V414.21h15.08v2.65Z" transform="translate(-514.31 -332.52)"/><path class="cls-1" d="M549.36,414.21h3v21.37h-3Z" transform="translate(-514.31 -332.52)"/><path class="cls-1" d="M581.68,414.21v21.37h-2.5l-12.83-15.94v15.94H563.3V414.21h2.5l12.83,15.94V414.21Z" transform="translate(-514.31 -332.52)"/><path class="cls-1" d="M637.77,414.21v21.37h-2.5l-12.83-15.94v15.94h-3.05V414.21h2.5l12.83,15.94V414.21Z" transform="translate(-514.31 -332.52)"/><path class="cls-1" d="M606.19,430.24H594.82l-2.35,5.34h-3.14L599,414.21h3l9.71,21.37h-3.2Zm-1.07-2.44-4.62-10.48-4.61,10.48Z" transform="translate(-514.31 -332.52)"/><path class="cls-1" d="M652.43,434.41a10.5,10.5,0,0,1-4-3.91,11.49,11.49,0,0,1,0-11.21,10.46,10.46,0,0,1,4.06-3.91,11.87,11.87,0,0,1,5.81-1.42,12.12,12.12,0,0,1,4.58.84,9.42,9.42,0,0,1,3.54,2.49l-2,1.92a8,8,0,0,0-6-2.53,8.77,8.77,0,0,0-4.31,1.07,7.8,7.8,0,0,0-3,2.94,8.71,8.71,0,0,0,0,8.4,7.76,7.76,0,0,0,3,3,8.77,8.77,0,0,0,4.31,1.07,8,8,0,0,0,6-2.57l2,1.93a9.47,9.47,0,0,1-3.56,2.5,12.59,12.59,0,0,1-10.38-.56Z" transform="translate(-514.31 -332.52)"/><path class="cls-1" d="M675.21,414.21h3v21.37h-3Z" transform="translate(-514.31 -332.52)"/><path class="cls-1" d="M702.76,430.24H691.4l-2.35,5.34h-3.14l9.68-21.37h3l9.71,21.37h-3.2Zm-1.06-2.44-4.62-10.48-4.61,10.48Z" transform="translate(-514.31 -332.52)"/><path class="cls-1" d="M716,414.21h3v18.72H730.6v2.65H716Z" transform="translate(-514.31 -332.52)"/><path class="cls-2" d="M752.66,360.92l-23.41-.08A2.67,2.67,0,0,0,727,365l11.42,17.78Z" transform="translate(-514.31 -332.52)"/><path class="cls-3" d="M814.76,332.52a6.31,6.31,0,0,0-5.31,2.87l-50.15,77a2.7,2.7,0,0,0,0,2.93l12.34,19.16a3.21,3.21,0,0,0,5.4,0l66.29-101.86Z" transform="translate(-514.31 -332.52)"/><path class="cls-2" d="M753.6,360.92l-24.35-.08A2.67,2.67,0,0,0,727,365l11.84,18.57Z" transform="translate(-514.31 -332.52)"/><path class="cls-4" d="M757,411.49l42.79-65.78L770,345.62a6.3,6.3,0,0,0-5.31,2.87l-23.4,35.84a2.7,2.7,0,0,0,0,2.93Z" transform="translate(-514.31 -332.52)"/></svg>