<?xml version="1.0" encoding="utf-8"?><svg xmlns="http://www.w3.org/2000/svg" xmlns:xlink="http://www.w3.org/1999/xlink" viewBox="0 0 346.32 384.34"><defs><style>.cls-1{fill:url(#linear-gradient);}.cls-2{fill:url(#linear-gradient-2);}.cls-3{fill:url(#linear-gradient-3);}.cls-4{fill:url(#linear-gradient-4);}</style><linearGradient id="linear-gradient" x1="204.29" y1="160.88" x2="244.47" y2="121.48" gradientUnits="userSpaceOnUse"><stop offset="0" stop-color="#099d91"/><stop offset="1" stop-color="#099d91" stop-opacity="0"/></linearGradient><linearGradient id="linear-gradient-2" x1="4924.26" y1="1455.09" x2="4964.44" y2="1415.7" gradientTransform="translate(5066.29 1678.56) rotate(180)" xlink:href="#linear-gradient"/><linearGradient id="linear-gradient-3" x1="14" y1="205.15" x2="159.75" y2="368.12" gradientUnits="userSpaceOnUse"><stop offset="0.33" stop-color="#0c9" stop-opacity="0"/><stop offset="1" stop-color="#0c9"/></linearGradient><linearGradient id="linear-gradient-4" x1="222.7" y1="181.53" x2="357.11" y2="197.82" gradientUnits="userSpaceOnUse"><stop offset="0" stop-color="#0c9" stop-opacity="0"/><stop offset="1" stop-color="#0c9"/></linearGradient></defs><g id="Layer_2" data-name="Layer 2"><g id="Layer_1-2" data-name="Layer 1"><path class="cls-1" d="M100.25,283.52l90.37,75.34,30.72,24.81-.23.67h-75.3a16.93,16.93,0,0,1-10.18-3.4s-80.36-63.46-80.38-63.49l.12-.1A168.68,168.68,0,0,1,0,192.2C0,109,60.14,39.85,139.32,25.76l74,60.93A113.3,113.3,0,0,0,151.67,79c-51.62,7.9-92.12,51-96.61,103A114.2,114.2,0,0,0,100.25,283.52Z"/><path class="cls-2" d="M246.07,100.82,155.71,25.48,125,.68l.24-.68h75.29a16.91,16.91,0,0,1,10.18,3.4l80.39,63.49L291,67A169.09,169.09,0,0,1,207,358.58l-74-60.92a113.38,113.38,0,0,0,61.63,7.65c51.61-7.9,92.12-51,96.61-103A114.21,114.21,0,0,0,246.07,100.82Z"/><path class="cls-3" d="M100.25,283.52A114.17,114.17,0,0,1,55,183.66H.23C.09,186.49,0,189.34,0,192.2A168.68,168.68,0,0,0,55.37,317.35l-.12.1s80.38,63.49,80.38,63.49a16.93,16.93,0,0,0,10.18,3.4h75.3l.23-.67-30.72-24.81Z"/><path class="cls-4" d="M246.07,100.82,155.71,25.48,125,.68l.24-.68h75.29a16.91,16.91,0,0,1,10.18,3.4l80.39,63.49L291,67A169.09,169.09,0,0,1,207,358.58l-74-60.92a113.38,113.38,0,0,0,61.63,7.65c51.61-7.9,92.12-51,96.61-103A114.21,114.21,0,0,0,246.07,100.82Z"/></g></g></svg>